<?xml version="1.0" encoding="UTF-8"?>
<svg width="54px" height="36px" viewBox="0 0 54 36" version="1.1" xmlns="http://www.w3.org/2000/svg" xmlns:xlink="http://www.w3.org/1999/xlink">
    <!-- Generator: sketchtool 42 (36781) - http://www.bohemiancoding.com/sketch -->
    <title>A3FB522E-AB27-4B26-9A36-D171E07935B6</title>
    <desc>Created with sketchtool.</desc>
    <defs></defs>
    <g id="Page-1" stroke="none" stroke-width="1" fill="none" fill-rule="evenodd">
        <g id="Paquetes" transform="translate(-104.000000, -324.000000)" fill="#FFFFFF">
            <path d="M112.25,324 C109.781,324 107.75,326.031 107.75,328.5 L107.75,349.5 C105.699,349.5 104,351.199 104,353.25 L104,356.25 C104,358.301 105.699,360 107.75,360 L154.25,360 C156.301,360 158,358.301 158,356.25 L158,353.25 C158,351.199 156.301,349.5 154.25,349.5 L154.25,328.5 C154.25,326.031 152.219,324 149.75,324 L112.25,324 Z M112.25,327 L149.75,327 C150.605,327 151.25,327.645 151.25,328.5 L151.25,349.5 L141.5,349.5 L141.5,346.5 C141.5,344.031 139.469,342 137,342 L125,342 C122.531,342 120.5,344.031 120.5,346.5 L120.5,349.5 L110.75,349.5 L110.75,328.5 C110.75,327.645 111.395,327 112.25,327 Z M131,329.25 C128.117,329.25 125.75,331.617 125.75,334.5 C125.75,337.383 128.117,339.75 131,339.75 C133.883,339.75 136.25,337.383 136.25,334.5 C136.25,331.617 133.883,329.25 131,329.25 Z M131,332.25 C132.262,332.25 133.25,333.238 133.25,334.5 C133.25,335.762 132.262,336.75 131,336.75 C129.738,336.75 128.75,335.762 128.75,334.5 C128.75,333.238 129.738,332.25 131,332.25 Z M125,345 L137,345 C137.855,345 138.5,345.645 138.5,346.5 L138.5,349.5 L135.5,349.5 C134.672,349.5 134,350.172 134,351 L134,352.5 L128,352.5 L128,351 C128,350.172 127.328,349.5 126.5,349.5 L123.5,349.5 L123.5,346.5 C123.5,345.645 124.145,345 125,345 Z M107.75,352.5 L125,352.5 C125,354.137 126.363,355.5 128,355.5 L134,355.5 C135.637,355.5 137,354.137 137,352.5 L154.25,352.5 C154.691,352.5 155,352.809 155,353.25 L155,356.25 C155,356.691 154.691,357 154.25,357 L107.75,357 C107.309,357 107,356.691 107,356.25 L107,353.25 C107,352.809 107.309,352.5 107.75,352.5 Z" id="Page-1"></path>
        </g>
    </g>
</svg>